{
  "accessors": [
    {
      "bufferView": 0,
      "componentType": 5125,
      "count": 47142,
      "type": "SCALAR"
    },
    {
      "bufferView": 1,
      "componentType": 5126,
      "count": 9215,
      "max": [
        0.0049185057325369375,
        8.925781620550133e-05,
        0.008905228642444122
      ],
      "min": [
        -0.008516747829136917,
        -0.025510595064633712,
        -0.013229288758566918
      ],
      "type": "VEC3"
    },
    {
      "bufferView": 2,
      "componentType": 5126,
      "count": 9215,
      "max": [
        1.0,
        1.0,
        0.9999975843590446
      ],
      "min": [
        -1.0,
        -1.0,
        -1.0
      ],
      "type": "VEC3"
    },
    {
      "bufferView": 3,
      "componentType": 5126,
      "count": 9215,
      "max": [
        0.9563035401740123,
        1.0
      ],
      "min": [
        0.0,
        0.0
      ],
      "type": "VEC2"
    },
    {
      "bufferView": 4,
      "componentType": 5125,
      "count": 51654,
      "type": "SCALAR"
    },
    {
      "bufferView": 5,
      "componentType": 5126,
      "count": 10408,
      "max": [
        0.023093303614729943,
        0.0004066894490256656,
        0.008806389698920959
      ],
      "min": [
        0.006586181470184194,
        -0.02611293879963117,
        -0.013229288758566918
      ],
      "type": "VEC3"
    },
    {
      "bufferView": 6,
      "componentType": 5126,
      "count": 10408,
      "max": [
        1.0,
        1.0,
        0.9999999535612324
      ],
      "min": [
        -0.9999999999999681,
        -0.9999999998351702,
        -1.0
      ],
      "type": "VEC3"
    },
    {
      "bufferView": 7,
      "componentType": 5126,
      "count": 10408,
      "max": [
        1.0,
        0.948096682663908
      ],
      "min": [
        0.0,
        0.0
      ],
      "type": "VEC2"
    },
    {
      "bufferView": 8,
      "componentType": 5125,
      "count": 55740,
      "type": "SCALAR"
    },
    {
      "bufferView": 9,
      "componentType": 5126,
      "count": 11481,
      "max": [
        0.05213520378067815,
        0.053944822881109133,
        0.013229288758566918
      ],
      "min": [
        -0.05213520378067793,
        -0.053944822881109133,
        -0.013229288758566918
      ],
      "type": "VEC3"
    },
    {
      "bufferView": 10,
      "componentType": 5126,
      "count": 11481,
      "max": [
        1.0,
        1.0,
        0.999999639576741
      ],
      "min": [
        -1.0,
        -1.0,
        -1.0
      ],
      "type": "VEC3"
    },
    {
      "bufferView": 11,
      "componentType": 5126,
      "count": 11481,
      "max": [
        1.0,
        0.920680089843408
      ],
      "min": [
        0.0,
        0.0
      ],
      "type": "VEC2"
    }
  ],
  "asset": {
    "generator": "Adobe Illustrator",
    "version": "2.0"
  },
  "bufferViews": [
    {
      "buffer": 0,
      "byteLength": 188568,
      "target": 34963
    },
    {
      "buffer": 0,
      "byteLength": 110580,
      "byteOffset": 188568,
      "target": 34962
    },
    {
      "buffer": 0,
      "byteLength": 110580,
      "byteOffset": 299148,
      "target": 34962
    },
    {
      "buffer": 0,
      "byteLength": 73720,
      "byteOffset": 409728,
      "target": 34962
    },
    {
      "buffer": 0,
      "byteLength": 206616,
      "byteOffset": 483448,
      "target": 34963
    },
    {
      "buffer": 0,
      "byteLength": 124896,
      "byteOffset": 690064,
      "target": 34962
    },
    {
      "buffer": 0,
      "byteLength": 124896,
      "byteOffset": 814960,
      "target": 34962
    },
    {
      "buffer": 0,
      "byteLength": 83264,
      "byteOffset": 939856,
      "target": 34962
    },
    {
      "buffer": 0,
      "byteLength": 222960,
      "byteOffset": 1023120,
      "target": 34963
    },
    {
      "buffer": 0,
      "byteLength": 137772,
      "byteOffset": 1246080,
      "target": 34962
    },
    {
      "buffer": 0,
      "byteLength": 137772,
      "byteOffset": 1383852,
      "target": 34962
    },
    {
      "buffer": 0,
      "byteLength": 91848,
      "byteOffset": 1521624,
      "target": 34962
    }
  ],
  "buffers": [
    {
      "byteLength": 1613472,
      "uri": "data:application/octet-stream;base64,"
    }
  ],
  "materials": [
    {
      "doubleSided": true,
      "pbrMetallicRoughness": {
        "baseColorFactor": [
          0.91015625,
          0.33984375,
          0.16796875,
          1.0
        ],
        "metallicFactor": 0.0,
        "roughnessFactor": 0.4000000059604645
      }
    },
    {
      "doubleSided": true,
      "pbrMetallicRoughness": {
        "baseColorFactor": [
          0.91015625,
          0.33984375,
          0.16796875,
          1.0
        ],
        "metallicFactor": 0.0,
        "roughnessFactor": 0.4000000059604645
      }
    },
    {
      "doubleSided": true,
      "pbrMetallicRoughness": {
        "baseColorFactor": [
          0.91015625,
          0.33984375,
          0.16796875,
          1.0
        ],
        "metallicFactor": 0.0,
        "roughnessFactor": 0.4000000059604645
      }
    }
  ],
  "meshes": [
    {
      "primitives": [
        {
          "attributes": {
            "NORMAL": 2,
            "POSITION": 1,
            "TEXCOORD_0": 3
          },
          "indices": 0,
          "material": 0,
          "mode": 4
        }
      ]
    },
    {
      "primitives": [
        {
          "attributes": {
            "NORMAL": 6,
            "POSITION": 5,
            "TEXCOORD_0": 7
          },
          "indices": 4,
          "material": 1,
          "mode": 4
        }
      ]
    },
    {
      "primitives": [
        {
          "attributes": {
            "NORMAL": 10,
            "POSITION": 9,
            "TEXCOORD_0": 11
          },
          "indices": 8,
          "material": 2,
          "mode": 4
        }
      ]
    }
  ],
  "nodes": [
    {
      "mesh": 0
    },
    {
      "mesh": 1
    },
    {
      "mesh": 2
    }
  ],
  "scenes": [
    {
      "nodes": [
        0,
        1,
        2
      ]
    }
  ]
}
